<?xml version="1.0" encoding="UTF-8" standalone="no"?>
<!-- Uploaded to: SVG Repo, www.svgrepo.com, Generator: SVG Repo Mixer Tools -->

<svg
   fill="#000000"
   width="800px"
   height="800px"
   viewBox="0 -14.14 122.88 122.88"
   version="1.1"
   id="Layer_1"
   style="enable-background:new 0 0 122.88 94.59"
   xml:space="preserve"
   sodipodi:docname="dice_engine.svg"
   inkscape:version="1.3 (0e150ed6c4, 2023-07-21)"
   xmlns:inkscape="http://www.inkscape.org/namespaces/inkscape"
   xmlns:sodipodi="http://sodipodi.sourceforge.net/DTD/sodipodi-0.dtd"
   xmlns="http://www.w3.org/2000/svg"
   xmlns:svg="http://www.w3.org/2000/svg"><defs
   id="defs1" /><sodipodi:namedview
   id="namedview1"
   pagecolor="#505050"
   bordercolor="#eeeeee"
   borderopacity="1"
   inkscape:showpageshadow="0"
   inkscape:pageopacity="0"
   inkscape:pagecheckerboard="0"
   inkscape:deskcolor="#505050"
   inkscape:zoom="0.12828125"
   inkscape:cx="-721.07186"
   inkscape:cy="1032.8867"
   inkscape:window-width="1920"
   inkscape:window-height="1017"
   inkscape:window-x="1912"
   inkscape:window-y="-8"
   inkscape:window-maximized="1"
   inkscape:current-layer="Layer_1" />&#10;&#10;<style
   type="text/css"
   id="style1">.st0{fill-rule:evenodd;clip-rule:evenodd;}</style>&#10;&#10;<path
   d="m 49.8999,23.72 c -0.542499,-0.0225 -1.065494,-0.01252 -1.5669,0.0342 -0.501406,0.04672 -0.981075,0.130025 -1.4367,0.2544 -0.455625,0.124375 -0.887244,0.289931 -1.2924,0.5004 -0.202578,0.105234 -0.398618,0.22176 -0.5877,0.3501 -0.189082,0.12834 -0.3713,0.2684 -0.5463,0.4209 L 32.4,38.1101 h -8.5401 c -0.35125,0 -0.694484,0.03572 -1.0263,0.1041 -0.331816,0.06838 -0.65221,0.169335 -0.9576,0.2991 -0.30539,0.129765 -0.595628,0.28834 -0.8676,0.4725 -0.271972,0.18416 -0.525638,0.393938 -0.7572,0.6255 -0.231562,0.231562 -0.44104,0.484928 -0.6252,0.7569 -0.18416,0.271972 -0.343035,0.56251 -0.4728,0.8679 -0.129765,0.30539 -0.230421,0.625784 -0.2988,0.9576 -0.06838,0.331816 -0.1044,0.67505 -0.1044,1.0263 v 9.36 H 13.8801 V 42.4001 c 0,-0.27125 -0.02779,-0.536553 -0.0807,-0.7929 C 13.74649,41.350853 13.668491,41.103415 13.5681,40.8674 13.467709,40.631385 13.344841,40.406854 13.2024,40.1966 13.059959,39.986346 12.897862,39.790362 12.7188,39.6113 12.539738,39.432238 12.343754,39.270141 12.1335,39.1277 11.923246,38.985259 11.698715,38.862391 11.4627,38.762 11.226685,38.661609 10.979247,38.58361 10.7229,38.5307 10.466553,38.47779 10.20125,38.45 9.93,38.45 H 3.9501 c -0.2712497,0 -0.5365526,0.02779 -0.7929,0.0807 C 2.9008526,38.58361 2.6534154,38.661609 2.4174,38.762 2.1813846,38.862391 1.9568537,38.985259 1.7466,39.1277 1.5363463,39.270141 1.3403623,39.432238 1.1613,39.6113 0.98223768,39.790362 0.82014126,39.986346 0.6777,40.1966 0.53525874,40.406854 0.41239052,40.631385 0.312,40.8674 0.21160948,41.103415 0.1336101,41.350853 0.0807,41.6072 0.0277899,41.863547 0,42.12885 0,42.4001 v 34.5 c 0,0.27125 0.0277899,0.536253 0.0807,0.7926 0.0529101,0.256347 0.13090948,0.504085 0.2313,0.7401 0.10039052,0.236015 0.22325874,0.460246 0.3657,0.6705 0.14244126,0.210254 0.30453768,0.406238 0.4836,0.5853 0.1790623,0.179062 0.3750463,0.341459 0.5853,0.4839 0.2102537,0.142441 0.4347846,0.265009 0.6708,0.3654 0.2360154,0.100391 0.4834526,0.17839 0.7398,0.2313 0.2563474,0.05291 0.5216503,0.0807 0.7929,0.0807 H 9.93 c 0.27125,0 0.536553,-0.02779 0.7929,-0.0807 0.256347,-0.05291 0.503785,-0.130909 0.7398,-0.2313 0.236015,-0.100391 0.460546,-0.222959 0.6708,-0.3654 0.210254,-0.142441 0.406238,-0.304838 0.5853,-0.4839 0.179062,-0.179062 0.341159,-0.375046 0.4836,-0.5853 0.142441,-0.210254 0.265309,-0.434485 0.3657,-0.6705 0.100391,-0.236015 0.17839,-0.483753 0.2313,-0.7401 0.05291,-0.256347 0.0807,-0.52135 0.0807,-0.7926 V 66.7199 H 18.75 v 8.7 c 0,0.35125 0.03602,0.694484 0.1044,1.0263 0.06838,0.331816 0.169035,0.65221 0.2988,0.9576 0.129765,0.30539 0.28864,0.595928 0.4728,0.8679 0.18416,0.271972 0.393638,0.525338 0.6252,0.7569 0.231562,0.231562 0.485228,0.44134 0.7572,0.6255 0.271972,0.18416 0.56221,0.342735 0.8676,0.4725 0.30539,0.129765 0.625784,0.230721 0.9576,0.2991 0.331816,0.06838 0.67505,0.1044 1.0263,0.1044 h 8.04 l 11.6802,11.67 c 0.17625,0.18875 0.359339,0.365865 0.5493,0.5319 0.189961,0.166035 0.386806,0.320885 0.5904,0.4644 0.203594,0.143515 0.413752,0.275709 0.6309,0.3969 0.217148,0.121191 0.441075,0.231238 0.6717,0.3303 0.46125,0.198125 0.949613,0.352419 1.4643,0.4632 0.514687,0.110781 1.055801,0.1781 1.6233,0.2031 h 30.3999 c 0.445,-0.025 0.863219,-0.07734 1.254,-0.1575 0.390781,-0.08016 0.754275,-0.188075 1.0899,-0.3237 0.335625,-0.135625 0.643269,-0.299094 0.9228,-0.4905 0.279531,-0.191406 0.5308,-0.4107 0.7533,-0.6582 L 101.3601,75.5 c 0.41,-0.38 0.78,-0.7901 1.11,-1.2201 0.2175,-0.2825 0.40656,-0.555262 0.5709,-0.822 0.16434,-0.266738 0.30381,-0.527222 0.4224,-0.7848 0.11859,-0.257578 0.21613,-0.512381 0.2964,-0.7674 0.0803,-0.255019 0.14323,-0.510438 0.1926,-0.7695 0.0988,-0.518124 0.14321,-1.050894 0.1629,-1.6248 0.0197,-0.573906 0.0147,-1.188901 0.0147,-1.8714 v -0.9201 h 4.8699 v 10.1802 c 0,0.27125 0.0278,0.536253 0.0807,0.7926 0.0529,0.256347 0.13091,0.504085 0.2313,0.7401 0.10039,0.236015 0.22326,0.460246 0.3657,0.6705 0.14244,0.210254 0.30454,0.406238 0.4836,0.5853 0.17906,0.179062 0.37505,0.341459 0.5853,0.4839 0.21025,0.142441 0.43478,0.265009 0.6708,0.3654 0.23602,0.100391 0.48345,0.17839 0.7398,0.2313 0.25635,0.05291 0.52165,0.0807 0.7929,0.0807 h 5.9799 c 0.27125,0 0.53655,-0.02779 0.7929,-0.0807 0.25635,-0.05291 0.50378,-0.130909 0.7398,-0.2313 0.23602,-0.100391 0.46055,-0.222959 0.6708,-0.3654 0.21025,-0.142441 0.40624,-0.304838 0.5853,-0.4839 0.17906,-0.179062 0.34116,-0.375046 0.4836,-0.5853 0.14244,-0.210254 0.26531,-0.434485 0.3657,-0.6705 0.10039,-0.236015 0.17839,-0.483753 0.2313,-0.7401 0.0529,-0.256347 0.0807,-0.52135 0.0807,-0.7926 v -34.5 c 0,-0.27125 -0.0278,-0.536553 -0.0807,-0.7929 -0.0529,-0.256347 -0.13091,-0.503785 -0.2313,-0.7398 -0.10039,-0.236015 -0.22326,-0.460546 -0.3657,-0.6708 -0.14244,-0.210254 -0.30454,-0.406238 -0.4836,-0.5853 -0.17906,-0.179062 -0.37505,-0.341159 -0.5853,-0.4836 -0.21025,-0.142441 -0.43478,-0.265309 -0.6708,-0.3657 -0.23602,-0.100391 -0.48345,-0.17839 -0.7398,-0.2313 -0.25635,-0.05291 -0.52165,-0.0807 -0.7929,-0.0807 H 112.95 c -0.27125,0 -0.53655,0.02779 -0.7929,0.0807 -0.25635,0.05291 -0.50378,0.130909 -0.7398,0.2313 -0.23602,0.100391 -0.46055,0.223259 -0.6708,0.3657 -0.21025,0.142441 -0.40624,0.304538 -0.5853,0.4836 -0.17906,0.179062 -0.34116,0.375046 -0.4836,0.5853 -0.14244,0.210254 -0.26531,0.434785 -0.3657,0.6708 -0.10039,0.236015 -0.17839,0.483453 -0.2313,0.7398 -0.0529,0.256347 -0.0807,0.52165 -0.0807,0.7929 V 52.58 H 104.13 V 29.09 c 0,-0.3425 0.008,-0.642494 0.008,-0.9189 -3.1e-4,-0.276406 -0.009,-0.529175 -0.0429,-0.7773 -0.0337,-0.248125 -0.0923,-0.491744 -0.1926,-0.7494 -0.10031,-0.257656 -0.2422,-0.5293 -0.4422,-0.8343 -0.2,-0.31 -0.43201,-0.583981 -0.6942,-0.8232 -0.26219,-0.239219 -0.55475,-0.443725 -0.876,-0.6156 -0.32125,-0.171875 -0.67101,-0.311131 -1.0482,-0.4191 C 100.46451,23.844231 100.06,23.7675 99.63,23.72 Z m 14.1861,5.7564 c 0.321168,0 0.64237,0.03697 0.957,0.1107 0.31463,0.07373 0.622657,0.184047 0.9177,0.3315 l 25.1652,12.5829 c 0.177594,0.08874 0.347079,0.188966 0.5076,0.2997 0.160521,0.110734 0.312213,0.232034 0.4542,0.3624 0.141987,0.130366 0.274308,0.269666 0.3963,0.4173 0.121992,0.147634 0.233663,0.303362 0.3342,0.4659 0.100537,0.162538 0.18998,0.331922 0.2676,0.507 0.07762,0.175078 0.143257,0.355945 0.1965,0.5412 0.05324,0.185255 0.0941,0.375133 0.1215,0.5682 0.0274,0.193067 0.0416,0.389184 0.0417,0.5877 v 25.1655 c 1.04e-4,0.198727 -0.01384,0.395317 -0.0411,0.5886 -0.02726,0.193283 -0.06805,0.383332 -0.1212,0.5688 -0.05315,0.185468 -0.118619,0.366516 -0.1962,0.5418 -0.07758,0.175284 -0.167053,0.344871 -0.2676,0.5076 -0.100547,0.162729 -0.212152,0.318395 -0.3342,0.4662 -0.122048,0.147805 -0.254516,0.287689 -0.3966,0.4182 -0.142084,0.130511 -0.293844,0.251853 -0.4545,0.3627 -0.160656,0.110847 -0.330437,0.211187 -0.5082,0.3 L 65.9607,87.7529 c -0.295098,0.147453 -0.603343,0.258074 -0.918,0.3318 -0.314657,0.07373 -0.635832,0.1107 -0.957,0.1107 -0.321168,0 -0.64237,-0.03697 -0.957,-0.1107 -0.31463,-0.07373 -0.622657,-0.184347 -0.9177,-0.3318 L 37.0458,75.1703 c -0.177763,-0.08883 -0.347546,-0.189444 -0.5082,-0.3003 -0.160654,-0.110856 -0.312419,-0.231884 -0.4545,-0.3624 -0.142081,-0.130516 -0.274556,-0.270394 -0.3966,-0.4182 -0.122044,-0.147806 -0.233656,-0.303772 -0.3342,-0.4665 -0.100544,-0.162728 -0.19002,-0.33232 -0.2676,-0.5076 -0.07758,-0.17528 -0.143047,-0.356037 -0.1962,-0.5415 -0.05315,-0.185463 -0.09394,-0.375524 -0.1212,-0.5688 -0.02726,-0.193276 -0.04119,-0.389879 -0.0411,-0.5886 V 46.2509 c -3.07e-4,-0.198912 0.01339,-0.395422 0.0405,-0.5889 0.02711,-0.193478 0.06784,-0.383732 0.1209,-0.5694 0.05306,-0.185668 0.118659,-0.366918 0.1962,-0.5424 0.07754,-0.175482 0.166745,-0.34528 0.2673,-0.5082 0.100555,-0.16292 0.212399,-0.318817 0.3345,-0.4668 0.122101,-0.147983 0.25472,-0.28813 0.3969,-0.4188 0.14218,-0.13067 0.29401,-0.252019 0.4548,-0.363 0.16079,-0.110981 0.330567,-0.211384 0.5085,-0.3003 L 62.211,29.9186 c 0.295098,-0.147453 0.603343,-0.257774 0.918,-0.3315 0.314657,-0.07373 0.635832,-0.1107 0.957,-0.1107 z"
   style="clip-rule:evenodd;fill:#e0e0e0;fill-rule:evenodd"
   id="path6" /><path
   d="m 51.9801,-1e-4 c -0.27125,0 -0.536553,0.0277899 -0.7929,0.0807 C 50.930853,0.1335101 50.683415,0.21150948 50.4474,0.3119 50.211385,0.41229052 49.986854,0.53515874 49.7766,0.6776 49.566346,0.82004126 49.370362,0.98213768 49.1913,1.1612 49.012238,1.3402623 48.850141,1.5362463 48.7077,1.7465 48.565259,1.9567537 48.442391,2.1812846 48.342,2.4173 48.241609,2.6533154 48.16361,2.9007526 48.1107,3.1571 48.05779,3.4134474 48.03,3.6787503 48.03,3.95 v 5.9799 c 0,0.27125 0.02779,0.536553 0.0807,0.7929 0.05291,0.256347 0.130909,0.503785 0.2313,0.7398 0.100391,0.236015 0.223259,0.460546 0.3657,0.6708 0.142441,0.210254 0.304538,0.406238 0.4836,0.5853 0.179062,0.179062 0.375046,0.341159 0.5853,0.4836 0.210254,0.142441 0.434785,0.265309 0.6708,0.3657 0.236015,0.100391 0.483453,0.17839 0.7398,0.2313 0.256347,0.05291 0.52165,0.0807 0.7929,0.0807 H 62.16 v 5.0301 H 76.2999 V 13.88 h 10.1802 c 0.27125,0 0.536253,-0.02779 0.7926,-0.0807 0.256347,-0.05291 0.504085,-0.130909 0.7401,-0.2313 0.236015,-0.100391 0.460246,-0.223259 0.6705,-0.3657 0.210254,-0.142441 0.406238,-0.304538 0.5853,-0.4836 0.179062,-0.179062 0.341459,-0.375046 0.4839,-0.5853 0.142441,-0.210254 0.265009,-0.434785 0.3654,-0.6708 0.100391,-0.236015 0.17839,-0.483453 0.2313,-0.7398 0.05291,-0.256347 0.0807,-0.52165 0.0807,-0.7929 V 3.95 c 0,-0.2712497 -0.02779,-0.5365526 -0.0807,-0.7929 C 90.29629,2.9007526 90.218291,2.6533154 90.1179,2.4173 90.017509,2.1812846 89.894941,1.9567537 89.7525,1.7465 89.610059,1.5362463 89.447662,1.3402623 89.2686,1.1612 89.089538,0.98213768 88.893554,0.82004126 88.6833,0.6776 88.473046,0.53515874 88.248815,0.41229052 88.0128,0.3119 87.776785,0.21150948 87.529047,0.1335101 87.2727,0.0806 87.016353,0.0276899 86.75135,-1e-4 86.4801,-1e-4 Z"
   style="clip-rule:evenodd;fill:#e0e0e0;fill-rule:evenodd"
   id="path5" />&#10;&#10;<path
   fill="#e0e0e0"
   d="m 42.839377,45.994669 c -1.118472,0.558916 -1.824357,1.702492 -1.822426,2.95283 v 19.773352 c -5.8e-4,1.249138 0.705026,2.391169 1.822426,2.949525 l 19.773353,9.886677 c 0.927305,0.463437 2.018744,0.463437 2.946221,0 l 19.773346,-9.886677 c 1.117401,-0.558271 1.823082,-1.700345 1.822427,-2.949525 V 48.947499 c -6.55e-4,-1.24785 -0.706089,-2.388422 -1.822427,-2.946221 L 65.558951,36.114602 c -0.927306,-0.463437 -2.018744,-0.463437 -2.946221,0 z M 64.08584,42.699111 76.490319,48.901369 64.08584,55.103607 51.681366,48.901369 Z M 47.608047,54.233567 60.790281,60.824684 V 73.235767 L 47.608047,66.644649 Z"
   id="path2"
   sodipodi:nodetypes="ccccccccccccccccccccccc"
   style="display:inline;fill:#e1b622;fill-opacity:1;stroke-width:3.29556" /></svg>
