<?xml version="1.0" encoding="UTF-8" standalone="no"?>
<svg
   width="16"
   height="16"
   version="1.1"
   id="svg1"
   sodipodi:docname="roll.svg"
   inkscape:version="1.3 (0e150ed6c4, 2023-07-21)"
   xml:space="preserve"
   xmlns:inkscape="http://www.inkscape.org/namespaces/inkscape"
   xmlns:sodipodi="http://sodipodi.sourceforge.net/DTD/sodipodi-0.dtd"
   xmlns="http://www.w3.org/2000/svg"
   xmlns:svg="http://www.w3.org/2000/svg"><defs
     id="defs1" /><sodipodi:namedview
     id="namedview1"
     pagecolor="#505050"
     bordercolor="#eeeeee"
     borderopacity="1"
     inkscape:showpageshadow="0"
     inkscape:pageopacity="0"
     inkscape:pagecheckerboard="0"
     inkscape:deskcolor="#505050"
     inkscape:zoom="51.3125"
     inkscape:cx="7.5322777"
     inkscape:cy="9.2082826"
     inkscape:window-width="1920"
     inkscape:window-height="1017"
     inkscape:window-x="1912"
     inkscape:window-y="-8"
     inkscape:window-maximized="1"
     inkscape:current-layer="svg1" /><path
     fill="#e0e0e0"
     d="M 1.553,4.104 C 1.2136257,4.2735854 0.99944401,4.6206139 1,5 v 6 c -1.7662e-4,0.379026 0.2139484,0.725575 0.553,0.895 l 6,3 c 0.2814108,0.140621 0.6125892,0.140621 0.894,0 l 6,-3 C 14.786052,11.725575 15.000177,11.379026 15,11 V 5 C 14.999798,4.6213343 14.785729,4.2752635 14.447,4.106 l -6,-3 C 8.1655892,0.96537861 7.8344108,0.96537861 7.553,1.106 Z M 8,3.104 11.764,4.986 8,6.868 4.236,4.986 Z m -5,3.5 4,2 v 3.766 l -4,-2 z"
     id="path1"
     sodipodi:nodetypes="ccccccccccccccccccccccc"
     style="fill:#e1b622;fill-opacity:1" /><text
     xml:space="preserve"
     style="font-style:normal;font-variant:normal;font-weight:normal;font-stretch:normal;font-size:13.3333px;line-height:1.25;font-family:sans-serif;-inkscape-font-specification:'sans-serif, Normal';font-variant-ligatures:normal;font-variant-caps:normal;font-variant-numeric:normal;font-feature-settings:normal;text-align:start;letter-spacing:0px;word-spacing:0px;writing-mode:lr-tb;text-anchor:start;fill:#000000;fill-opacity:1;stroke:none"
     x="8.1855574"
     y="8.2131186"
     id="text3"><tspan
       sodipodi:role="line"
       id="tspan3"></tspan></text><path
     d="m 5.5724385,9.0135617 a 5,5 0 1 1 1.4140004,1.4140003 l -4.3160004,4.316 -1.414,-1.414 z M 9.7404389,3.259561 a 3.0000004,3.0000004 0 0 0 0,6.0000007 3.0000004,3.0000004 0 0 0 0,-6.0000007 z"
     fill="#e0e0e0"
     id="path1-0" /></svg>
